<?xml version="1.0" standalone="no"?><!-- Generator: Gravit.io --><svg xmlns="http://www.w3.org/2000/svg" xmlns:xlink="http://www.w3.org/1999/xlink" style="isolation:isolate" viewBox="1524.003 437.931 207.993 199.069" width="207.993" height="199.069"><g id="LOLS"><path d=" M 1570.733 632.831 C 1554.701 637.393 1538.106 628.524 1533.699 613.038 C 1529.292 597.552 1538.731 581.275 1554.764 576.713 C 1570.797 572.15 1587.391 581.019 1591.798 596.505 C 1596.205 611.991 1586.766 628.268 1570.733 632.831 Z " fill="rgb(234,113,3)"/><g id="Group"><path d=" M 1731.997 556.343 C 1731.997 600.962 1691.153 637 1628 637 C 1564.847 637 1524.003 600.962 1524.003 556.343 C 1524.003 511.724 1564.847 444.795 1628 444.795 C 1691.153 444.795 1731.997 511.724 1731.997 556.343 Z " fill="rgb(247,145,11)"/><path d=" M 1731.997 556.343 C 1731.997 600.962 1691.153 623.271 1628 623.271 C 1564.847 623.271 1524.003 600.962 1524.003 556.343 C 1524.003 511.724 1564.847 437.931 1628 437.931 C 1691.153 437.931 1731.997 511.724 1731.997 556.343 Z " fill="rgb(247,145,11)"/></g><g id="Group"><path d=" M 1628 437.931 C 1691.153 437.931 1731.997 511.724 1731.997 556.343 C 1731.997 600.962 1691.153 623.271 1628 623.271" fill="rgb(249,169,8)"/><path d=" M 1731.997 556.343 C 1731.997 600.962 1691.153 623.271 1628 623.271 C 1564.847 623.271 1524.003 600.962 1524.003 556.343 C 1524.003 511.724 1564.847 444.795 1628 444.795 C 1691.153 444.795 1731.997 511.724 1731.997 556.343 Z " fill="rgb(249,169,8)"/></g><path d=" M 1524.003 556.343 C 1524.003 511.724 1564.847 444.795 1628 444.795" fill="rgb(249,197,93)"/><path d=" M 1628 444.795 C 1691.153 444.795 1731.997 511.724 1731.997 556.343 C 1731.997 600.962 1691.153 637 1628 637" fill="rgb(247,145,11)"/><path d=" M 1628 444.795 C 1691.153 444.795 1731.997 511.724 1731.997 556.343" fill="rgb(234,113,3)"/><path d=" M 1613.585 548.792 C 1613.585 552.91 1601.572 551.194 1586.813 551.194 C 1572.055 551.194 1560.042 553.254 1560.042 548.792 C 1560.042 544.673 1572.055 541.241 1586.813 541.241 C 1601.572 541.241 1613.585 544.673 1613.585 548.792 Z " fill="rgb(249,197,93)"/><path d=" M 1695.958 548.792 C 1695.958 552.91 1683.945 551.194 1669.187 551.194 C 1654.428 551.194 1642.415 553.254 1642.415 548.792 C 1642.415 544.673 1654.428 541.241 1669.187 541.241 C 1683.945 541.241 1695.958 544.673 1695.958 548.792 Z " fill="rgb(249,169,8)"/><g id="Group"><path d=" M 1551.461 546.046 C 1551.461 544.909 1552.384 543.987 1553.521 543.987 C 1554.657 543.987 1555.58 544.909 1555.58 546.046 C 1555.58 547.183 1554.657 548.105 1553.521 548.105 C 1552.384 548.105 1551.461 547.183 1551.461 546.046 Z " fill="rgb(247,145,11)"/><path d=" M 1534.3 552.91 C 1534.3 550.827 1535.992 549.135 1538.076 549.135 C 1540.159 549.135 1541.851 550.827 1541.851 552.91 C 1541.851 554.994 1540.159 556.686 1538.076 556.686 C 1535.992 556.686 1534.3 554.994 1534.3 552.91 Z " fill="rgb(247,145,11)"/><path d=" M 1547.686 539.181 C 1547.686 538.803 1547.993 538.495 1548.372 538.495 C 1548.751 538.495 1549.059 538.803 1549.059 539.181 C 1549.059 539.56 1548.751 539.868 1548.372 539.868 C 1547.993 539.868 1547.686 539.56 1547.686 539.181 Z " fill="rgb(247,145,11)"/><path d=" M 1563.474 545.359 C 1563.474 544.981 1563.782 544.673 1564.161 544.673 C 1564.539 544.673 1564.847 544.981 1564.847 545.359 C 1564.847 545.738 1564.539 546.046 1564.161 546.046 C 1563.782 546.046 1563.474 545.738 1563.474 545.359 Z " fill="rgb(247,145,11)"/></g><g id="Group"><path d=" M 1695.958 547.076 C 1695.958 545.56 1697.188 544.33 1698.704 544.33 C 1700.219 544.33 1701.45 545.56 1701.45 547.076 C 1701.45 548.591 1700.219 549.821 1698.704 549.821 C 1697.188 549.821 1695.958 548.591 1695.958 547.076 Z " fill="rgb(249,169,8)"/><path d=" M 1706.598 551.881 C 1706.598 551.502 1706.906 551.194 1707.284 551.194 C 1707.663 551.194 1707.971 551.502 1707.971 551.881 C 1707.971 552.26 1707.663 552.567 1707.284 552.567 C 1706.906 552.567 1706.598 552.26 1706.598 551.881 Z " fill="rgb(249,169,8)"/><path d=" M 1688.064 521.677 C 1688.064 521.109 1688.525 520.647 1689.094 520.647 C 1689.662 520.647 1690.123 521.109 1690.123 521.677 C 1690.123 522.245 1689.662 522.707 1689.094 522.707 C 1688.525 522.707 1688.064 522.245 1688.064 521.677 Z " fill="rgb(249,169,8)"/><path d=" M 1682.916 561.491 C 1682.916 559.028 1684.915 557.029 1687.378 557.029 C 1689.84 557.029 1691.839 559.028 1691.839 561.491 C 1691.839 563.954 1689.84 565.953 1687.378 565.953 C 1684.915 565.953 1682.916 563.954 1682.916 561.491 Z " fill="rgb(249,169,8)"/><path d=" M 1710.03 561.834 C 1710.03 560.698 1710.953 559.775 1712.09 559.775 C 1713.226 559.775 1714.149 560.698 1714.149 561.834 C 1714.149 562.971 1713.226 563.894 1712.09 563.894 C 1710.953 563.894 1710.03 562.971 1710.03 561.834 Z " fill="rgb(249,169,8)"/></g><g id="Group"><path d=" M 1548.372 559.775 C 1548.372 558.828 1549.141 558.059 1550.088 558.059 C 1551.036 558.059 1551.805 558.828 1551.805 559.775 C 1551.805 560.722 1551.036 561.491 1550.088 561.491 C 1549.141 561.491 1548.372 560.722 1548.372 559.775 Z " fill="rgb(247,145,11)"/><path d=" M 1551.461 530.944 C 1551.461 530.186 1552.076 529.571 1552.834 529.571 C 1553.592 529.571 1554.207 530.186 1554.207 530.944 C 1554.207 531.702 1553.592 532.317 1552.834 532.317 C 1552.076 532.317 1551.461 531.702 1551.461 530.944 Z " fill="rgb(247,145,11)"/></g><g id="Group"><path d=" M 1530.868 483.579 C 1530.868 481.496 1532.56 479.804 1534.643 479.804 C 1536.727 479.804 1538.419 481.496 1538.419 483.579 C 1538.419 485.663 1536.727 487.355 1534.643 487.355 C 1532.56 487.355 1530.868 485.663 1530.868 483.579 Z " fill="rgb(249,169,8)"/><path d=" M 1543.567 471.567 C 1543.567 470.43 1544.49 469.507 1545.627 469.507 C 1546.763 469.507 1547.686 470.43 1547.686 471.567 C 1547.686 472.703 1546.763 473.626 1545.627 473.626 C 1544.49 473.626 1543.567 472.703 1543.567 471.567 Z " fill="rgb(249,169,8)"/><path d=" M 1720.67 491.817 C 1720.67 491.438 1720.978 491.13 1721.357 491.13 C 1721.735 491.13 1722.043 491.438 1722.043 491.817 C 1722.043 492.196 1721.735 492.503 1721.357 492.503 C 1720.978 492.503 1720.67 492.196 1720.67 491.817 Z " fill="rgb(249,169,8)"/><path d=" M 1715.865 481.863 C 1715.865 480.348 1717.095 479.117 1718.611 479.117 C 1720.126 479.117 1721.357 480.348 1721.357 481.863 C 1721.357 483.379 1720.126 484.609 1718.611 484.609 C 1717.095 484.609 1715.865 483.379 1715.865 481.863 Z " fill="rgb(249,169,8)"/><path d=" M 1725.819 483.579 C 1725.819 482.632 1726.588 481.863 1727.535 481.863 C 1728.482 481.863 1729.251 482.632 1729.251 483.579 C 1729.251 484.527 1728.482 485.295 1727.535 485.295 C 1726.588 485.295 1725.819 484.527 1725.819 483.579 Z " fill="rgb(249,169,8)"/><path d=" M 1536.703 493.876 C 1536.703 492.739 1537.625 491.817 1538.762 491.817 C 1539.899 491.817 1540.821 492.739 1540.821 493.876 C 1540.821 495.013 1539.899 495.935 1538.762 495.935 C 1537.625 495.935 1536.703 495.013 1536.703 493.876 Z " fill="rgb(249,169,8)"/></g><path d=" M 1680.513 544.673 C 1679.14 544.673 1677.767 543.987 1676.394 542.957 C 1671.589 538.152 1663.695 538.152 1658.89 542.957 C 1656.831 545.016 1653.055 545.359 1650.996 542.957 C 1648.937 540.898 1648.593 537.122 1650.996 535.063 C 1660.263 525.796 1675.365 525.796 1684.632 535.063 C 1686.691 537.122 1686.691 540.898 1684.632 542.957 C 1683.259 543.987 1681.886 544.673 1680.513 544.673 Z " fill="rgb(30,71,132)"/><path d=" M 1684.289 534.72 C 1686.348 536.779 1686.348 540.554 1684.289 542.614 C 1683.259 543.643 1681.886 544.33 1680.17 544.33 C 1678.797 544.33 1677.424 543.643 1676.051 542.614 C 1671.246 537.809 1663.352 537.809 1658.547 542.614 C 1656.487 544.673 1652.712 545.016 1650.653 542.614 C 1648.593 540.554 1648.25 536.779 1650.653 534.72" fill="rgb(2,36,62)"/><path d=" M 1575.487 544.673 C 1576.86 544.673 1578.233 543.987 1579.606 542.957 C 1584.411 538.152 1592.305 538.152 1597.11 542.957 C 1599.169 545.016 1602.945 545.359 1605.004 542.957 C 1607.063 540.898 1607.407 537.122 1605.004 535.063 C 1595.737 525.796 1580.635 525.796 1571.368 535.063 C 1569.309 537.122 1569.309 540.898 1571.368 542.957 C 1572.741 543.987 1574.114 544.673 1575.487 544.673 Z " fill="rgb(30,71,132)"/><path d=" M 1571.711 534.72 C 1569.652 536.779 1569.652 540.554 1571.711 542.614 C 1572.741 543.643 1574.114 544.33 1575.83 544.33 C 1577.203 544.33 1578.576 543.643 1579.949 542.614 C 1584.754 537.809 1592.648 537.809 1597.453 542.614 C 1599.513 544.673 1603.288 545.016 1605.347 542.614 C 1607.407 540.554 1607.75 536.779 1605.347 534.72" fill="rgb(2,36,62)"/><path d=" M 1656.144 568.699 C 1656.144 578.309 1643.445 586.203 1628 586.203 C 1612.212 586.203 1599.513 578.309 1599.513 568.699 C 1599.513 559.088 1612.212 566.296 1628 566.296 C 1643.788 565.953 1656.144 558.745 1656.144 568.699 Z " fill="rgb(153,20,74)"/><path d=" M 1656.144 572.474 C 1656.144 582.084 1643.445 595.813 1628 595.813 C 1612.212 595.813 1599.513 582.084 1599.513 572.474" fill="rgb(247,145,11)"/><path d=" M 1656.144 568.699 C 1656.144 578.309 1643.445 586.203 1628 586.203 C 1612.212 586.203 1599.513 578.309 1599.513 568.699" fill="rgb(114,5,59)"/><g id="Group"><path d=" M 1578.576 489.071 C 1579.949 491.473 1585.097 486.668 1591.962 482.206 C 1598.826 477.745 1605.347 475.342 1603.974 473.283 C 1602.602 470.88 1592.305 467.448 1585.44 471.91 C 1578.576 476.028 1577.203 486.668 1578.576 489.071 Z " fill="rgb(3,122,102)"/><path d=" M 1677.424 489.071 C 1676.051 491.473 1670.903 486.668 1664.038 482.206 C 1656.831 477.745 1650.653 475.342 1652.026 473.283 C 1653.399 470.88 1663.695 467.448 1670.56 471.91 C 1677.424 476.028 1678.797 486.668 1677.424 489.071 Z " fill="rgb(3,122,102)"/></g><g id="Group"><path d=" M 1557.639 554.626 C 1551.118 553.597 1543.91 566.296 1541.508 582.771 C 1538.762 599.245 1545.97 610.915 1552.491 611.945 C 1559.012 612.974 1562.444 602.678 1564.847 586.203 C 1567.25 569.728 1563.817 555.656 1557.639 554.626 Z " fill="rgb(204,242,227)"/><path d=" M 1597.453 583.8 C 1583.381 597.873 1583.724 591.008 1579.949 586.889 C 1576.173 582.771 1569.309 583.114 1583.381 569.042 C 1597.453 554.97 1606.034 552.91 1610.152 557.029 C 1614.271 560.805 1611.525 569.728 1597.453 583.8 Z " fill="rgb(204,242,227)"/></g><path d=" M 1610.152 556.686 C 1613.928 560.805 1611.525 569.728 1597.453 583.8 C 1583.381 597.873 1583.724 591.008 1579.949 586.889" fill="rgb(170,214,195)"/><path d=" M 1580.292 571.788 C 1566.22 585.86 1566.563 578.995 1562.788 574.877 C 1559.012 570.758 1550.088 572.817 1564.161 558.745 C 1578.233 544.673 1589.216 540.554 1592.991 544.673 C 1596.767 548.792 1594.364 557.716 1580.292 571.788 Z " fill="rgb(204,242,227)"/><path d=" M 1592.991 544.673 C 1596.767 548.792 1594.364 557.716 1580.292 571.788 C 1566.22 585.86 1566.563 578.995 1562.788 574.877" fill="rgb(170,214,195)"/><path d=" M 1605.691 604.394 C 1591.618 618.466 1591.962 611.602 1588.186 607.483 C 1584.411 603.364 1577.546 603.707 1591.618 589.635 C 1605.691 575.563 1614.271 573.504 1618.39 577.622 C 1622.165 581.398 1619.763 590.322 1605.691 604.394 Z " fill="rgb(204,242,227)"/><path d=" M 1618.39 577.279 C 1622.165 581.398 1619.763 590.322 1605.691 604.394 C 1591.618 618.466 1591.962 611.602 1588.186 607.483" fill="rgb(170,214,195)"/><path d=" M 1596.08 613.661 C 1583.038 626.703 1565.533 630.479 1553.177 617.093 C 1540.821 603.707 1541.165 582.084 1554.207 569.042 C 1567.25 555.999 1582.008 562.177 1594.707 575.563 C 1607.063 589.292 1609.123 600.618 1596.08 613.661 Z " fill="rgb(204,242,227)"/><path d=" M 1596.08 613.661 C 1583.038 626.703 1565.533 630.479 1553.177 617.093 C 1540.821 603.707 1548.372 587.919 1561.415 574.877 C 1574.457 561.834 1573.084 554.97 1593.678 574.877 C 1607.407 587.919 1609.809 600.275 1596.08 613.661 Z " fill="rgb(170,214,195)"/><g id="Group"><path d=" M 1601.915 557.029 C 1599.169 558.059 1597.453 559.432 1597.796 560.118 C 1598.14 560.805 1600.542 560.805 1602.945 559.775 C 1605.691 558.745 1607.407 557.372 1607.063 556.686 C 1607.063 555.999 1604.661 555.999 1601.915 557.029 Z " fill="rgb(231,247,239)"/><path d=" M 1583.724 545.703 C 1580.978 546.732 1579.262 548.105 1579.606 548.792 C 1579.949 549.478 1582.351 549.478 1584.754 548.448 C 1587.5 547.419 1589.216 546.046 1588.873 545.359 C 1588.529 544.673 1586.127 544.673 1583.724 545.703 Z " fill="rgb(231,247,239)"/><path d=" M 1610.152 578.309 C 1607.407 579.339 1605.691 580.711 1606.034 581.398 C 1606.377 582.084 1608.78 582.084 1611.182 581.055 C 1613.928 580.025 1615.644 578.652 1615.301 577.966 C 1614.958 577.279 1612.555 577.279 1610.152 578.309 Z " fill="rgb(231,247,239)"/><path d=" M 1562.101 570.758 C 1557.983 575.22 1553.864 577.966 1552.834 576.936 C 1551.805 575.906 1554.55 571.788 1558.669 567.326 C 1562.788 562.864 1564.504 562.864 1565.533 563.894 C 1566.563 564.58 1566.563 566.296 1562.101 570.758 Z " fill="rgb(231,247,239)"/><path d=" M 1554.55 565.266 C 1551.118 570.415 1547.686 573.847 1546.656 573.161 C 1545.627 572.474 1547.343 567.669 1550.775 562.521 C 1554.207 557.372 1555.58 556.686 1556.953 557.716 C 1557.639 558.402 1557.983 560.118 1554.55 565.266 Z " fill="rgb(231,247,239)"/></g></g></svg>