<?xml version="1.0" standalone="no"?><!-- Generator: Gravit.io --><svg xmlns="http://www.w3.org/2000/svg" xmlns:xlink="http://www.w3.org/1999/xlink" style="isolation:isolate" viewBox="1506.234 668.917 243.531 233.083" width="243.531" height="233.083"><g id="PL]S"><g id="Group"><path d=" M 1749.766 807.561 C 1749.766 859.804 1701.943 902 1628 902 C 1554.057 902 1506.234 859.804 1506.234 807.561 C 1506.234 755.319 1554.057 676.955 1628 676.955 C 1701.943 676.955 1749.766 755.319 1749.766 807.561 Z " fill="rgb(247,145,11)"/><path d=" M 1749.766 807.561 C 1749.766 859.804 1701.943 885.925 1628 885.925 C 1554.057 885.925 1506.234 859.804 1506.234 807.561 C 1506.234 755.319 1554.057 668.917 1628 668.917 C 1701.943 668.917 1749.766 755.319 1749.766 807.561 Z " fill="rgb(247,145,11)"/></g><g id="Group"><path d=" M 1628 668.917 C 1701.943 668.917 1749.766 755.319 1749.766 807.561 C 1749.766 859.804 1701.943 885.925 1628 885.925" fill="rgb(249,169,8)"/><path d=" M 1749.766 807.561 C 1749.766 859.804 1701.943 885.925 1628 885.925 C 1554.057 885.925 1506.234 859.804 1506.234 807.561 C 1506.234 755.319 1554.057 676.955 1628 676.955 C 1701.943 676.955 1749.766 755.319 1749.766 807.561 Z " fill="rgb(249,169,8)"/></g><path d=" M 1506.234 807.561 C 1506.234 755.319 1554.057 676.955 1628 676.955" fill="rgb(249,197,93)"/><path d=" M 1628 676.955 C 1701.943 676.955 1749.766 755.319 1749.766 807.561 C 1749.766 859.804 1701.943 902 1628 902" fill="rgb(247,145,11)"/><path d=" M 1628 676.955 C 1701.943 676.955 1749.766 755.319 1749.766 807.561" fill="rgb(234,113,3)"/><g id="Group"><path d=" M 1538.384 795.505 C 1538.384 794.175 1539.464 793.094 1540.795 793.094 C 1542.126 793.094 1543.206 794.175 1543.206 795.505 C 1543.206 796.836 1542.126 797.917 1540.795 797.917 C 1539.464 797.917 1538.384 796.836 1538.384 795.505 Z " fill="rgb(247,145,11)"/><path d=" M 1518.29 803.543 C 1518.29 801.103 1520.271 799.122 1522.711 799.122 C 1525.151 799.122 1527.132 801.103 1527.132 803.543 C 1527.132 805.982 1525.151 807.963 1522.711 807.963 C 1520.271 807.963 1518.29 805.982 1518.29 803.543 Z " fill="rgb(247,145,11)"/><path d=" M 1533.963 787.468 C 1533.963 787.024 1534.323 786.664 1534.767 786.664 C 1535.211 786.664 1535.571 787.024 1535.571 787.468 C 1535.571 787.912 1535.211 788.272 1534.767 788.272 C 1534.323 788.272 1533.963 787.912 1533.963 787.468 Z " fill="rgb(247,145,11)"/><path d=" M 1552.449 794.702 C 1552.449 794.258 1552.809 793.898 1553.253 793.898 C 1553.696 793.898 1554.057 794.258 1554.057 794.702 C 1554.057 795.145 1553.696 795.505 1553.253 795.505 C 1552.809 795.505 1552.449 795.145 1552.449 794.702 Z " fill="rgb(247,145,11)"/></g><g id="Group"><path d=" M 1707.57 796.711 C 1707.57 794.937 1709.01 793.496 1710.784 793.496 C 1712.559 793.496 1713.999 794.937 1713.999 796.711 C 1713.999 798.485 1712.559 799.926 1710.784 799.926 C 1709.01 799.926 1707.57 798.485 1707.57 796.711 Z " fill="rgb(249,169,8)"/><path d=" M 1720.027 802.337 C 1720.027 801.894 1720.388 801.533 1720.831 801.533 C 1721.275 801.533 1721.635 801.894 1721.635 802.337 C 1721.635 802.781 1721.275 803.141 1720.831 803.141 C 1720.388 803.141 1720.027 802.781 1720.027 802.337 Z " fill="rgb(249,169,8)"/><path d=" M 1698.327 766.973 C 1698.327 766.308 1698.867 765.767 1699.532 765.767 C 1700.198 765.767 1700.738 766.308 1700.738 766.973 C 1700.738 767.638 1700.198 768.178 1699.532 768.178 C 1698.867 768.178 1698.327 767.638 1698.327 766.973 Z " fill="rgb(249,169,8)"/><path d=" M 1692.299 813.589 C 1692.299 810.706 1694.64 808.365 1697.523 808.365 C 1700.406 808.365 1702.747 810.706 1702.747 813.589 C 1702.747 816.473 1700.406 818.814 1697.523 818.814 C 1694.64 818.814 1692.299 816.473 1692.299 813.589 Z " fill="rgb(249,169,8)"/><path d=" M 1724.046 813.991 C 1724.046 812.66 1725.126 811.58 1726.457 811.58 C 1727.788 811.58 1728.868 812.66 1728.868 813.991 C 1728.868 815.322 1727.788 816.402 1726.457 816.402 C 1725.126 816.402 1724.046 815.322 1724.046 813.991 Z " fill="rgb(249,169,8)"/></g><g id="Group"><path d=" M 1534.767 811.58 C 1534.767 810.471 1535.667 809.571 1536.776 809.571 C 1537.885 809.571 1538.786 810.471 1538.786 811.58 C 1538.786 812.689 1537.885 813.589 1536.776 813.589 C 1535.667 813.589 1534.767 812.689 1534.767 811.58 Z " fill="rgb(247,145,11)"/><path d=" M 1538.384 777.823 C 1538.384 776.936 1539.104 776.216 1539.991 776.216 C 1540.878 776.216 1541.599 776.936 1541.599 777.823 C 1541.599 778.71 1540.878 779.431 1539.991 779.431 C 1539.104 779.431 1538.384 778.71 1538.384 777.823 Z " fill="rgb(247,145,11)"/></g><g id="Group"><path d=" M 1514.272 722.366 C 1514.272 719.926 1516.253 717.945 1518.692 717.945 C 1521.132 717.945 1523.113 719.926 1523.113 722.366 C 1523.113 724.805 1521.132 726.786 1518.692 726.786 C 1516.253 726.786 1514.272 724.805 1514.272 722.366 Z " fill="rgb(249,169,8)"/><path d=" M 1529.141 708.3 C 1529.141 706.97 1530.221 705.889 1531.552 705.889 C 1532.883 705.889 1533.963 706.97 1533.963 708.3 C 1533.963 709.631 1532.883 710.712 1531.552 710.712 C 1530.221 710.712 1529.141 709.631 1529.141 708.3 Z " fill="rgb(249,169,8)"/><path d=" M 1736.504 732.011 C 1736.504 731.567 1736.864 731.207 1737.308 731.207 C 1737.751 731.207 1738.111 731.567 1738.111 732.011 C 1738.111 732.454 1737.751 732.814 1737.308 732.814 C 1736.864 732.814 1736.504 732.454 1736.504 732.011 Z " fill="rgb(249,169,8)"/><path d=" M 1730.878 720.356 C 1730.878 718.582 1732.318 717.141 1734.093 717.141 C 1735.867 717.141 1737.308 718.582 1737.308 720.356 C 1737.308 722.131 1735.867 723.571 1734.093 723.571 C 1732.318 723.571 1730.878 722.131 1730.878 720.356 Z " fill="rgb(249,169,8)"/><path d=" M 1742.532 722.366 C 1742.532 721.257 1743.432 720.356 1744.541 720.356 C 1745.65 720.356 1746.551 721.257 1746.551 722.366 C 1746.551 723.475 1745.65 724.375 1744.541 724.375 C 1743.432 724.375 1742.532 723.475 1742.532 722.366 Z " fill="rgb(249,169,8)"/><path d=" M 1521.104 734.422 C 1521.104 733.091 1522.184 732.011 1523.515 732.011 C 1524.846 732.011 1525.926 733.091 1525.926 734.422 C 1525.926 735.752 1524.846 736.833 1523.515 736.833 C 1522.184 736.833 1521.104 735.752 1521.104 734.422 Z " fill="rgb(249,169,8)"/></g><path d=" M 1657.738 848.552 C 1657.738 859 1644.477 877.486 1628 877.486 C 1611.523 877.486 1598.262 859 1598.262 848.552" fill="rgb(247,145,11)"/><g id="Group"><path d=" M 1568.122 742.459 C 1568.122 734.696 1574.424 728.394 1582.187 728.394 C 1589.95 728.394 1596.253 734.696 1596.253 742.459 C 1596.253 750.222 1589.95 756.524 1582.187 756.524 C 1574.424 756.524 1568.122 750.222 1568.122 742.459 Z " fill="rgb(216,119,3)"/><path d=" M 1687.878 742.459 C 1687.878 750.095 1681.448 756.524 1673.813 756.524 C 1666.177 756.524 1659.747 750.095 1659.747 742.459 C 1659.747 734.824 1666.177 728.394 1673.813 728.394 C 1681.85 728.394 1687.878 734.824 1687.878 742.459 Z " fill="rgb(216,119,3)"/></g><path d=" M 1568.122 738.44 C 1568.122 730.678 1574.424 724.375 1582.187 724.375 C 1589.95 724.375 1596.253 730.678 1596.253 738.44 C 1596.253 746.203 1589.95 752.506 1582.187 752.506 C 1574.424 752.506 1568.122 746.203 1568.122 738.44 Z " fill="rgb(30,71,132)"/><path d=" M 1582.187 724.375 C 1589.823 724.375 1596.253 730.805 1596.253 738.44 C 1596.253 746.076 1589.823 752.506 1582.187 752.506" fill="rgb(0,35,63)"/><path d=" M 1687.878 738.44 C 1687.878 746.076 1681.448 752.506 1673.813 752.506 C 1666.177 752.506 1659.747 746.076 1659.747 738.44 C 1659.747 730.805 1666.177 724.375 1673.813 724.375 C 1681.85 724.375 1687.878 730.805 1687.878 738.44 Z " fill="rgb(30,71,132)"/><path d=" M 1673.813 724.375 C 1681.448 724.375 1687.878 730.805 1687.878 738.44 C 1687.878 746.076 1681.448 752.506 1673.813 752.506" fill="rgb(0,35,63)"/><path d=" M 1565.711 735.627 C 1565.711 726.384 1572.944 715.132 1582.187 715.132 C 1591.43 715.132 1598.664 726.384 1598.664 735.627" fill="rgb(249,169,8)"/><path d=" M 1657.336 735.627 C 1657.336 726.384 1664.57 715.132 1673.813 715.132 C 1683.056 715.132 1690.289 726.384 1690.289 735.627" fill="rgb(247,145,11)"/><path d=" M 1611.122 761.749 C 1611.122 766.571 1597.056 764.562 1579.776 764.562 C 1562.496 764.562 1548.43 766.973 1548.43 761.749 C 1548.43 756.524 1562.496 752.908 1579.776 752.908 C 1597.056 752.908 1611.122 756.926 1611.122 761.749 Z " fill="rgb(249,197,93)"/><path d=" M 1707.57 761.749 C 1707.57 766.571 1693.504 764.562 1676.224 764.562 C 1658.944 764.562 1644.878 766.973 1644.878 761.749 C 1644.878 756.524 1658.944 752.908 1676.224 752.908 C 1693.504 752.908 1707.57 756.926 1707.57 761.749 Z " fill="rgb(249,169,8)"/><g id="Group"><path d=" M 1604.692 723.169 C 1604.692 727.59 1595.449 725.179 1584.197 724.777 C 1572.944 724.375 1563.701 726.384 1563.701 721.964 C 1563.701 717.543 1572.944 713.927 1584.197 714.328 C 1595.851 714.73 1605.094 718.749 1604.692 723.169 Z " fill="rgb(25,188,164)"/><path d=" M 1651.308 723.169 C 1651.308 727.59 1660.551 725.179 1671.803 724.777 C 1683.056 724.375 1692.299 726.384 1692.299 721.964 C 1692.299 717.543 1683.056 713.927 1671.803 714.328 C 1660.149 714.73 1650.906 718.749 1651.308 723.169 Z " fill="rgb(25,188,164)"/></g><path d=" M 1636.037 849.757 L 1619.963 849.757 C 1617.551 849.757 1615.944 848.15 1615.944 845.739 C 1615.944 843.328 1617.551 841.72 1619.963 841.72 L 1636.037 841.72 C 1638.449 841.72 1640.056 843.328 1640.056 845.739 C 1640.056 848.15 1638.449 849.757 1636.037 849.757 Z " fill="rgb(2,36,62)"/></g></svg>