<?xml version="1.0" encoding="UTF-8"?>
<svg width="196px" height="220px" viewBox="0 0 196 220" version="1.1" xmlns="http://www.w3.org/2000/svg" xmlns:xlink="http://www.w3.org/1999/xlink">
    <!-- Generator: Sketch 46.1 (44463) - http://www.bohemiancoding.com/sketch -->
    <title>Group</title>
    <desc>Created with Sketch.</desc>
    <defs></defs>
    <g id="Page-1" stroke="none" stroke-width="1" fill="none" fill-rule="evenodd">
        <g id="shiba" transform="translate(-797.000000, -100.000000)">
            <g id="Clipped">
                <g id="Group">
                    <g transform="translate(797.000000, 101.000000)" id="Shape">
                        <path d="M32.387,201.282 C21.854,199.118 -19.124,157.852 11.609,85.274 C12.764,82.389 13.774,79.503 15.072,76.761 C17.145,72.487 19.558,68.386 22.287,64.497 L25.605,60.457 C27.681,58.383 30.128,56.719 32.82,55.551 L34.551,54.974 L35.706,54.685 C37.148,54.108 46.816,50.357 47.681,49.78 C47.97,49.491 56.05,11.687 67.882,9.09 C72.066,8.224 84.186,27.703 83.032,27.703 C87.361,31.599 121.99,37.082 122.279,33.331 C120.259,32.898 141.036,10.822 162.535,6.782 L163.978,6.782 C164.411,6.926 164.844,7.503 165.132,7.214 C168.018,4.473 187.353,35.639 177.253,62.765 C176.531,64.641 178.407,61.178 177.253,62.765 C177.253,63.487 180.715,67.671 182.014,71.423 C185.358,79.548 186.742,88.347 186.054,97.106 L186.054,97.25 L186.487,101.435 L186.92,106.196 C187.997,119.976 188.622,133.787 188.796,147.607 C188.684,151.567 188.347,155.517 187.786,159.439 C186.751,165.072 185.006,170.55 182.591,175.743 C178.372,184.564 172.086,192.237 164.267,198.108 C159.216,202.004 153.734,205.322 148.106,207.92 C127.174,216.766 104.309,220.046 81.734,217.443 C67.668,215.829 53.94,212.032 41.044,206.188 C39.334,205.324 37.65,204.41 35.994,203.447 C34.696,202.725 33.685,201.571 32.387,201.282 Z" fill-opacity="0.2" fill="#000000"></path>
                        <path d="M38.591,194.645 C28.058,192.481 -12.775,151.359 17.814,78.637 L21.277,70.124 C23.341,65.845 25.754,61.743 28.491,57.86 C29.501,56.417 30.655,55.118 31.954,53.964 C34.03,51.89 36.477,50.226 39.168,49.058 L40.756,48.481 L41.91,48.048 C43.353,47.615 53.02,43.719 53.886,43.142 C54.174,42.854 62.399,5.05 74.086,2.597 C78.415,1.587 90.391,21.066 89.237,21.066 C93.565,24.962 128.194,30.445 128.483,26.838 C126.463,26.116 147.241,4.184 168.884,0 L170.327,0.144 C170.615,0.144 171.048,0.721 171.337,0.433 C174.222,-2.164 193.701,28.858 183.457,55.984 C182.88,57.86 184.611,54.397 183.457,55.984 C183.457,56.705 186.92,60.89 188.363,64.641 L190.816,72.577 C192.238,78.378 192.725,84.37 192.259,90.325 L192.259,90.469 L192.691,94.653 L193.124,99.415 C194.201,113.194 194.826,127.005 195,140.826 C194.899,144.781 194.61,148.729 194.134,152.657 C193.066,158.346 191.271,163.874 188.796,169.106 C184.576,177.927 178.29,185.599 170.471,191.471 C159.08,199.799 146.045,205.604 132.235,208.497 C117.697,211.714 102.72,212.445 87.938,210.661 C73.872,209.047 60.144,205.25 47.249,199.407 C45.585,198.596 43.949,197.73 42.343,196.809 C40.9,196.088 40.034,194.789 38.591,194.501 L38.591,194.645 Z" stroke="#CFCFCF" stroke-width="1.688" fill="#FFFFFF" stroke-linejoin="round"></path>
                        <path d="M22.287,159.15 C22.287,159.15 9.878,126.83 19.401,104.898 C19.401,104.898 28.347,62.188 44.94,56.417 C68.315,48.625 62.255,47.471 63.12,42.854 C63.12,42.854 67.016,26.261 71.778,16.449 C71.778,16.449 75.529,8.946 78.703,17.17 C82.022,25.25 83.609,33.042 89.381,34.629 C89.381,34.629 122.856,41.555 130.359,39.391 C130.359,39.391 149.982,19.046 157.629,13.563 C165.277,8.224 168.162,11.687 172.058,19.479 C175.954,27.271 178.263,53.82 172.058,60.168 C172.058,60.168 183.457,78.637 181.437,95.663 C181.437,95.663 185.477,136.208 183.313,149.916 C171.77,222.637 35.417,215.134 22.287,159.15 Z" fill="#D1AD56"></path>
                        <path d="M20.7,159.439 C19.164,155.198 17.91,150.86 16.948,146.453 C14.674,136.719 13.848,126.704 14.495,116.729 C15.025,112.569 16.092,108.495 17.669,104.609 L17.669,104.465 L18.102,102.733 L18.679,100.569 C20.961,91.527 24.002,82.694 27.77,74.164 C29.607,70.279 31.78,66.562 34.263,63.054 C35.128,61.9 36.138,60.601 37.293,59.591 C39.201,57.692 41.454,56.174 43.93,55.118 L45.373,54.541 L46.383,54.252 L50.134,52.81 L52.732,51.8 L54.752,51.078 L56.483,50.357 L57.637,49.78 L60.09,48.337 C60.411,48.082 60.702,47.792 60.956,47.471 C61.153,47.266 61.301,47.02 61.389,46.749 L61.389,44.729 L61.245,43.431 L61.389,42.277 L61.966,40.401 C64.209,32.048 67.005,23.854 70.335,15.872 L70.479,15.439 C70.898,14.599 71.432,13.822 72.066,13.13 C72.493,12.722 72.979,12.381 73.509,12.12 C74.131,11.797 74.829,11.647 75.529,11.687 L76.251,11.832 C77.549,12.265 78.415,13.275 79.136,14.429 L79.281,14.862 L79.714,15.583 L80.002,16.449 L80.724,18.036 L81.445,20.345 L82.599,23.23 L83.176,24.818 L83.898,26.405 L84.475,27.559 C84.475,27.992 84.764,28.281 84.908,28.713 C85.774,30.156 86.928,31.599 88.371,32.609 C100.059,35.005 111.856,36.835 123.721,38.092 L126.607,38.092 L129.493,37.948 L132.379,35.062 C133.1,34.052 133.966,33.331 134.832,32.465 C141.407,25.998 148.143,19.695 155.032,13.563 C156.566,12.356 158.209,11.294 159.938,10.389 C161.148,9.774 162.477,9.43 163.834,9.379 C164.624,9.375 165.407,9.522 166.142,9.812 C167.874,10.533 169.028,11.832 170.182,13.275 L170.76,14.14 L171.481,15.295 L172.491,17.026 C173.841,19.514 174.813,22.188 175.377,24.962 C176.642,29.87 177.368,34.902 177.541,39.968 C177.622,45.151 177.138,50.328 176.098,55.407 C175.665,57.138 174.944,58.87 173.934,60.313 L174.655,61.467 C174.655,61.9 174.944,62.188 175.088,62.621 C177.903,67.993 180.128,73.653 181.725,79.503 C183.053,84.682 183.54,90.041 183.168,95.375 L183.168,95.663 L183.457,99.27 L183.746,103.599 C184.792,115.983 185.417,128.399 185.621,140.826 C185.553,143.718 185.36,146.607 185.044,149.483 L184.756,151.503 C183.692,156.581 182.046,161.52 179.85,166.22 C176.058,174.212 170.36,181.149 163.257,186.421 C158.928,189.884 153.878,192.769 148.828,195.078 C129.858,203.119 109.115,206.054 88.659,203.591 C75.899,202.151 63.439,198.744 51.722,193.491 C49.05,192.186 46.449,190.742 43.93,189.162 C36.293,184.468 29.867,178.042 25.172,170.405 C23.227,167.071 21.769,163.475 20.844,159.727 L20.7,159.439 Z M131.224,40.689 L131.08,40.834 L130.647,40.834 L129.926,41.122 L127.473,41.411 C124.676,41.513 121.876,41.368 119.104,40.978 C109.15,40.125 99.266,38.582 89.525,36.361 L89.092,36.361 C88.053,36.053 87.076,35.564 86.206,34.918 C84.186,33.475 82.744,31.311 81.589,29.146 C81.076,28.173 80.642,27.159 80.291,26.116 L79.425,23.663 L77.982,19.912 C77.982,19.335 77.549,18.758 77.405,18.036 C77.084,17.164 76.647,16.339 76.106,15.583 C75.975,15.426 75.83,15.282 75.673,15.15 L75.385,15.006 L74.952,15.006 C74.291,15.564 73.751,16.252 73.365,17.026 L72.932,18.036 C70.507,23.131 68.574,28.445 67.16,33.908 L65.573,39.824 L64.996,42.132 L64.708,43.287 L64.708,43.575 C64.563,44.297 64.708,45.018 64.708,45.595 L64.708,46.028 C64.766,46.762 64.667,47.5 64.419,48.192 C63.794,49.514 62.789,50.619 61.533,51.367 L60.667,51.8 L59.657,52.377 L58.215,53.098 L56.483,53.964 C52.875,55.599 49.163,56.997 45.373,58.148 L44.796,58.148 C42.68,59.125 40.77,60.496 39.168,62.188 L36.283,65.796 L33.397,70.557 C30.281,75.922 27.811,81.637 26.038,87.583 C24.015,93.348 22.329,99.226 20.988,105.186 L20.988,105.475 L20.555,106.341 L20.267,107.351 C17.936,113.516 16.952,120.108 17.381,126.685 C17.599,135.974 19.254,145.173 22.287,153.956 L23.73,158.573 L23.874,158.717 L24.162,159.727 L24.451,160.737 C25.309,163.663 26.52,166.473 28.058,169.106 C32.456,176.378 38.607,182.431 45.95,186.709 C48.713,188.468 51.607,190.012 54.607,191.327 C61.395,194.584 68.571,196.96 75.962,198.397 C97.432,203.031 119.751,201.835 140.603,194.934 C149.261,191.759 157.629,187.286 164.555,181.082 C172.64,173.781 178.366,164.237 181.004,153.667 C182.054,149.127 182.538,144.475 182.447,139.816 C182.575,130.663 182.189,121.51 181.293,112.401 L179.85,96.24 L179.85,94.653 L179.994,93.932 C180.2,89.459 179.713,84.981 178.551,80.657 C176.972,73.779 174.292,67.201 170.615,61.178 L170.615,61.034 L170.471,60.745 C170.416,60.508 170.416,60.261 170.471,60.024 L170.615,59.303 L171.048,58.725 L171.337,58.437 C172.139,57.251 172.726,55.932 173.068,54.541 C173.662,52.375 174.001,50.148 174.078,47.904 C174.492,42.997 174.347,38.06 173.645,33.186 C173.032,28.977 172.067,24.826 170.76,20.778 C169.912,19.031 168.948,17.344 167.874,15.727 C167.874,15.439 167.874,15.295 167.585,15.006 L167.152,14.429 C166.469,13.549 165.499,12.936 164.411,12.697 L163.545,12.697 C163.053,12.727 162.568,12.824 162.102,12.986 C159.601,14.138 157.309,15.699 155.321,17.603 L152.868,19.623 C145.482,26.12 138.45,33.007 131.802,40.256 L131.513,40.256 L131.513,40.401 L131.224,40.545 L131.224,40.689 Z" fill="#433231" fill-rule="nonzero"></path>
                        <path d="M132.523,46.317 C132.523,46.317 142.768,26.982 161.092,17.892 C179.561,8.946 166.431,73.443 166.431,73.443 C166.431,73.443 162.535,79.936 153.445,71.711 C144.499,63.343 133.677,53.531 132.523,46.317 Z" fill="#C09E4C"></path>
                        <path d="M147.241,59.303 C147.241,59.303 149.838,45.451 155.465,40.545 C161.236,35.928 156.908,54.685 156.619,54.974 C156.331,54.974 155.176,61.611 147.241,59.303 Z M73.221,17.459 C73.221,17.459 69.758,31.311 78.992,40.112 C78.992,40.112 86.062,42.565 87.649,39.246 C87.649,39.246 79.714,27.271 77.261,20.056 C75.529,15.15 73.221,17.603 73.221,17.603 L73.221,17.459 Z" fill="#B7933C"></path>
                        <path d="M61.822,190.316 C24.595,180.072 10.166,132.313 30.944,84.12 C30.944,84.12 34.118,76.906 41.766,78.349 C47.826,79.792 45.229,84.12 44.651,90.325 C44.074,96.529 41.621,102.733 51.433,103.888 C61.245,105.042 85.341,108.649 100.202,112.112 C115.064,115.719 116.074,114.854 123.289,109.515 C130.503,104.176 151.713,94.22 169.461,109.082 C169.461,109.082 179.705,118.605 160.804,145.298 C142.046,171.992 118.671,199.695 61.822,190.316 Z M122.423,92.2 C122.423,92.2 121.269,87.15 113.766,80.369 C106.551,73.587 108.571,73.154 108.571,73.154 C108.571,73.154 103.377,61.034 94.864,72.721 C89.237,80.224 93.854,85.996 94.142,87.15 C94.72,89.026 94.431,94.653 94.431,94.653 C94.431,94.653 88.804,105.186 98.182,106.196 C107.561,107.351 125.164,103.022 122.567,92.2 L122.423,92.2 Z M49.702,79.647 C49.702,79.647 46.383,98.116 61.966,90.469 C61.966,90.469 66.006,87.583 67.738,81.812 C69.325,75.751 74.952,74.886 74.952,74.886 C74.952,74.886 85.774,67.238 78.271,61.467 C70.623,55.695 63.265,64.353 58.215,68.393 C54.69,71.572 51.802,75.391 49.702,79.647 Z" fill="#D8C484"></path>
                        <path d="M40.756,145.587 C40.756,145.587 54.319,156.697 73.509,153.956 C92.555,151.359 102.655,157.852 102.944,159.727 C103.088,161.459 105.83,171.559 78.559,172.425 C44.94,173.579 40.756,145.731 40.756,145.731 L40.756,145.587 Z M36.571,132.457 C35.85,134.91 33.974,137.218 29.068,136.208 C29.068,136.208 18.391,114.276 34.696,83.832 C34.696,83.832 44.363,74.741 42.487,90.036 C40.611,105.331 39.024,105.908 41.477,106.341 C43.93,107.062 48.114,105.186 49.846,106.341 C51.289,107.206 63.265,113.266 66.006,116.874 C68.748,120.481 68.892,125.82 67.593,135.631 C66.15,145.298 84.186,145.731 84.186,145.731 C84.186,145.731 46.239,154.244 39.024,139.094 C37.958,136.981 37.135,134.755 36.571,132.457 Z M101.501,115.864 C106.984,116.585 113.044,119.759 122.134,115.864 C125.309,114.421 127.473,110.669 129.926,111.824 C132.379,113.122 141.758,119.038 123.866,124.521 C105.974,130.004 99.048,124.954 97.317,123.078 C92.122,117.162 98.76,115.575 101.645,115.864 L101.501,115.864 Z" fill="#C9B67B"></path>
                        <path d="M46.96,131.735 C46.96,131.735 63.842,140.681 67.449,140.681 C70.912,140.681 89.958,138.95 91.978,138.517 C93.998,137.94 57.637,152.369 41.91,139.527 C30.367,129.86 46.96,131.735 46.96,131.735 Z M73.221,121.635 L74.663,122.068 C77.822,122.752 80.912,123.718 83.898,124.954 C90.247,127.551 96.307,130.725 102.223,134.188 L100.202,133.178 C92.626,129.243 84.643,126.146 76.395,123.944 L74.375,123.511 L72.932,123.222 L72.788,123.222 L72.211,122.212 L73.076,121.635 L73.221,121.635 Z M35.706,117.018 L35.994,117.018 L36.571,118.028 L35.706,118.605 L34.551,118.605 C30.573,119.976 26.752,121.766 23.152,123.944 L15.938,128.85 L17.381,127.695 C21.094,124.703 24.998,121.956 29.068,119.471 C30.223,118.749 31.521,118.172 32.675,117.739 C33.594,117.349 34.567,117.106 35.561,117.018 L35.706,117.018 Z M36.427,115.431 L36.716,115.431 L37.437,116.297 L36.571,117.018 L36.138,117.018 C34.843,116.887 33.538,116.887 32.243,117.018 L26.904,117.884 C21.71,118.749 16.804,120.192 11.754,121.635 L13.485,120.914 C19.343,118.915 25.318,117.277 31.377,116.008 C32.82,115.719 34.263,115.431 35.706,115.431 L36.283,115.431 L36.427,115.431 Z M78.271,114.998 C84.186,114.998 90.102,115.575 96.018,116.441 L94.142,116.297 C86.732,115.883 79.301,116.076 71.922,116.874 C71.533,116.95 71.147,117.047 70.768,117.162 L69.758,116.585 L70.19,115.575 L71.633,115.431 L73.076,115.142 L77.405,114.998 L78.271,114.998 Z M94.575,107.062 L92.699,107.206 C85.366,108.194 78.127,109.787 71.056,111.968 L69.902,112.401 L68.748,112.112 L69.036,111.102 C71.861,110.122 74.755,109.35 77.693,108.794 L81.301,108.216 C85.629,107.639 90.102,107.206 94.575,106.918 L94.575,107.062 Z M9.878,107.639 C18.489,108.168 27.064,109.18 35.561,110.669 L36.138,111.679 L35.128,112.256 L34.696,112.112 L33.83,111.824 C30.512,110.889 27.139,110.166 23.73,109.659 C18.824,108.794 13.918,108.216 9.012,107.639 L9.878,107.639 Z M14.928,92.633 C21.298,96.753 27.462,101.183 33.397,105.908 L35.128,107.351 L36.427,108.649 L36.427,109.804 L35.273,109.804 C35.273,109.515 34.984,109.371 34.984,109.371 C32.68,106.857 30.171,104.54 27.481,102.445 C23.441,98.982 19.257,95.808 14.928,92.633 Z" fill="#3D372B"></path>
                        <path d="M38.158,133.178 C39.168,131.735 42.199,131.591 44.363,131.591 L46.816,131.591 C46.816,131.591 57.493,137.363 63.697,139.671 C54.883,138.937 46.253,136.743 38.158,133.178 Z M40.9,121.491 C40.034,120.625 33.397,111.968 41.91,106.196 C50.567,100.569 62.399,107.928 63.265,110.236 C63.265,110.236 68.026,122.789 50.856,126.108 L47.537,126.541 C47.537,126.541 43.641,123.944 40.9,121.491 Z M95.297,94.365 C95.297,94.365 95.585,88.593 105.974,84.842 C114.054,81.812 122.279,92.777 122.279,92.777 C122.279,92.777 116.507,102.878 106.407,101.002 C96.162,99.126 95.297,94.365 95.297,94.365 Z M65.429,80.802 C65.429,80.802 62.11,72.721 54.896,75.751 C47.393,78.637 51.289,87.583 51.289,87.583 C51.289,87.583 56.483,93.643 62.399,86.573 L65.573,80.802 L65.429,80.802 Z" fill="#000000"></path>
                        <path d="M105.974,98.838 C105.974,98.838 103.233,93.643 105.83,90.613 C108.283,87.583 110.736,89.603 110.736,89.603 C110.736,89.603 106.551,83.832 101.357,90.613 C95.585,97.972 105.83,100.713 105.974,98.838 Z M54.607,87.583 C54.607,87.583 51,81.667 55.329,80.369 C55.329,80.369 56.483,79.647 57.637,80.369 C58.647,81.09 58.503,77.483 55.617,77.916 C52.732,78.493 48.547,84.264 54.607,87.583 Z M62.11,79.214 C62.832,79.214 63.409,79.792 63.409,80.369 C63.409,81.09 62.832,81.667 62.11,81.667 C61.433,81.667 60.884,81.118 60.884,80.441 C60.884,79.763 61.433,79.214 62.11,79.214 Z" fill="#FFFFFF"></path>
                    </g>
                </g>
            </g>
        </g>
    </g>
</svg>